<svg width="16" height="17" viewBox="0 0 16 17" fill="none" xmlns="http://www.w3.org/2000/svg">
<g clip-path="url(#clip0_1078_394)">
<path fill-rule="evenodd" clip-rule="evenodd" d="M4.70182 0.862514C5.55491 0.823241 5.82691 0.814514 8 0.814514C10.1731 0.814514 10.4451 0.823969 11.2975 0.862514C12.1498 0.90106 12.7316 1.03706 13.2407 1.23415C13.7738 1.43561 14.2575 1.75051 14.6575 2.15779C15.0647 2.55706 15.3789 3.03997 15.5796 3.57379C15.7775 4.08288 15.9127 4.6647 15.952 5.51561C15.9913 6.37015 16 6.64215 16 8.81451C16 10.9876 15.9905 11.2596 15.952 12.1127C15.9135 12.9636 15.7775 13.5454 15.5796 14.0545C15.3789 14.5884 15.0642 15.0721 14.6575 15.472C14.2575 15.8792 13.7738 16.1934 13.2407 16.3942C12.7316 16.592 12.1498 16.7272 11.2989 16.7665C10.4451 16.8058 10.1731 16.8145 8 16.8145C5.82691 16.8145 5.55491 16.8051 4.70182 16.7665C3.85091 16.728 3.26909 16.592 2.76 16.3942C2.22612 16.1934 1.74241 15.8787 1.34255 15.472C0.935549 15.0725 0.620593 14.589 0.419636 14.0552C0.222545 13.5462 0.0872727 12.9643 0.048 12.1134C0.00872726 11.2589 0 10.9869 0 8.81451C0 6.64142 0.00945454 6.36942 0.048 5.51706C0.0865454 4.6647 0.222545 4.08288 0.419636 3.57379C0.620889 3.04003 0.936086 2.55656 1.34327 2.15706C1.74257 1.75015 2.2258 1.4352 2.75927 1.23415C3.26836 1.03706 3.85018 0.901787 4.70109 0.862514H4.70182ZM11.2327 2.30251C10.3891 2.26397 10.136 2.25597 8 2.25597C5.864 2.25597 5.61091 2.26397 4.76727 2.30251C3.98691 2.33815 3.56364 2.46833 3.28145 2.57815C2.90836 2.72361 2.64145 2.89597 2.36145 3.17597C2.09603 3.43419 1.89177 3.74854 1.76364 4.09597C1.65382 4.37815 1.52364 4.80142 1.488 5.58179C1.44945 6.42542 1.44145 6.67851 1.44145 8.81451C1.44145 10.9505 1.44945 11.2036 1.488 12.0472C1.52364 12.8276 1.65382 13.2509 1.76364 13.5331C1.89164 13.88 2.096 14.1949 2.36145 14.4531C2.61964 14.7185 2.93455 14.9229 3.28145 15.0509C3.56364 15.1607 3.98691 15.2909 4.76727 15.3265C5.61091 15.3651 5.86327 15.3731 8 15.3731C10.1367 15.3731 10.3891 15.3651 11.2327 15.3265C12.0131 15.2909 12.4364 15.1607 12.7185 15.0509C13.0916 14.9054 13.3585 14.7331 13.6385 14.4531C13.904 14.1949 14.1084 13.88 14.2364 13.5331C14.3462 13.2509 14.4764 12.8276 14.512 12.0472C14.5505 11.2036 14.5585 10.9505 14.5585 8.81451C14.5585 6.67851 14.5505 6.42542 14.512 5.58179C14.4764 4.80142 14.3462 4.37815 14.2364 4.09597C14.0909 3.72288 13.9185 3.45597 13.6385 3.17597C13.3803 2.91057 13.066 2.7063 12.7185 2.57815C12.4364 2.46833 12.0131 2.33815 11.2327 2.30251ZM6.97818 11.2807C7.54884 11.5182 8.18428 11.5503 8.77595 11.3714C9.36762 11.1925 9.87883 10.8137 10.2223 10.2998C10.5657 9.78584 10.72 9.1686 10.6589 8.5535C10.5978 7.9384 10.3251 7.36359 9.88727 6.92724C9.60817 6.64832 9.2707 6.43474 8.89915 6.30189C8.5276 6.16905 8.13122 6.12023 7.73854 6.15896C7.34586 6.19769 6.96666 6.32301 6.62822 6.52588C6.28979 6.72876 6.00054 7.00415 5.78131 7.33222C5.56208 7.6603 5.41832 8.03291 5.36038 8.42321C5.30243 8.81352 5.33175 9.21182 5.44621 9.58944C5.56068 9.96705 5.75744 10.3146 6.02234 10.607C6.28724 10.8995 6.61369 11.1296 6.97818 11.2807ZM5.09236 5.90688C5.4742 5.52504 5.92751 5.22215 6.4264 5.0155C6.92529 4.80886 7.46 4.7025 8 4.7025C8.54 4.7025 9.07471 4.80886 9.5736 5.0155C10.0725 5.22215 10.5258 5.52504 10.9076 5.90688C11.2895 6.28871 11.5924 6.74202 11.799 7.24091C12.0057 7.73981 12.112 8.27452 12.112 8.81451C12.112 9.35451 12.0057 9.88922 11.799 10.3881C11.5924 10.887 11.2895 11.3403 10.9076 11.7222C10.1365 12.4933 9.09058 12.9265 8 12.9265C6.90942 12.9265 5.86352 12.4933 5.09236 11.7222C4.32121 10.951 3.88798 9.90509 3.88798 8.81451C3.88798 7.72394 4.32121 6.67803 5.09236 5.90688ZM13.024 5.31488C13.1186 5.22562 13.1944 5.11828 13.2468 4.99922C13.2992 4.88016 13.3271 4.7518 13.329 4.62174C13.3309 4.49167 13.3067 4.36255 13.2578 4.24201C13.2089 4.12148 13.1363 4.01198 13.0443 3.92C12.9524 3.82802 12.8429 3.75543 12.7223 3.70653C12.6018 3.65763 12.4727 3.63341 12.3426 3.6353C12.2125 3.6372 12.0842 3.66517 11.9651 3.71757C11.8461 3.76996 11.7387 3.84571 11.6495 3.94033C11.4759 4.12435 11.3808 4.36878 11.3845 4.62174C11.3882 4.87469 11.4903 5.11624 11.6692 5.29513C11.8481 5.47401 12.0896 5.57614 12.3426 5.57982C12.5955 5.58351 12.84 5.48847 13.024 5.31488Z" fill="black"/>
</g>
<defs>
<clipPath id="clip0_1078_394">
<rect width="16" height="16" fill="white" transform="translate(0 0.814514)"/>
</clipPath>
</defs>
</svg>
