<svg width="16" height="17" viewBox="0 0 16 17" fill="none" xmlns="http://www.w3.org/2000/svg">
<g clip-path="url(#clip0_1078_399)">
<path fill-rule="evenodd" clip-rule="evenodd" d="M16 8.81451C16 13.2325 12.418 16.8145 8 16.8145C3.582 16.8145 0 13.2325 0 8.81451C0 4.39651 3.582 0.814514 8 0.814514C12.418 0.814514 16 4.39651 16 8.81451ZM8.28667 6.72051C7.50867 7.04385 5.95333 7.71385 3.62133 8.72985C3.24267 8.88051 3.044 9.02785 3.026 9.17185C2.99533 9.41585 3.30067 9.51185 3.71533 9.64185C3.772 9.65985 3.83067 9.67785 3.89067 9.69785C4.29933 9.83051 4.84867 9.98585 5.134 9.99185C5.39333 9.99718 5.68267 9.89051 6.002 9.67185C8.18067 8.20051 9.30533 7.45718 9.376 7.44118C9.426 7.42985 9.49533 7.41518 9.542 7.45718C9.58867 7.49851 9.584 7.57718 9.57933 7.59851C9.54867 7.72718 8.35267 8.83985 7.73267 9.41585C7.53933 9.59518 7.40267 9.72251 7.37467 9.75185C7.312 9.81651 7.248 9.87851 7.18667 9.93785C6.80667 10.3032 6.52267 10.5778 7.20267 11.0258C7.52933 11.2412 7.79067 11.4192 8.05133 11.5965C8.336 11.7905 8.62 11.9838 8.988 12.2252C9.08133 12.2865 9.17067 12.3498 9.258 12.4118C9.58933 12.6485 9.88733 12.8605 10.2553 12.8272C10.4687 12.8072 10.69 12.6065 10.802 12.0072C11.0667 10.5898 11.588 7.52051 11.7087 6.25518C11.716 6.15012 11.7115 6.04457 11.6953 5.94051C11.6856 5.85647 11.6447 5.77914 11.5807 5.72385C11.4853 5.64585 11.3373 5.62918 11.2707 5.63051C10.97 5.63585 10.5087 5.79651 8.28667 6.72051Z" fill="black"/>
</g>
<defs>
<clipPath id="clip0_1078_399">
<rect width="16" height="16" fill="white" transform="translate(0 0.814514)"/>
</clipPath>
</defs>
</svg>
