<svg width="16" height="16" viewBox="0 0 16 16" fill="none" xmlns="http://www.w3.org/2000/svg">
<g clip-path="url(#clip0_1124_11)">
<path d="M2.72896 16H13.2711C14.1807 16 14.8629 15.7758 15.3178 15.3272C15.7726 14.8787 16 14.2059 16 13.3088V2.70867C16 1.81158 15.7726 1.13876 15.3178 0.690213C14.8629 0.241668 14.1807 0.017395 13.2711 0.017395H2.72896C1.8193 0.017395 1.13706 0.241668 0.682239 0.690213C0.227413 1.13876 0 1.81158 0 2.70867V13.3088C0 14.2059 0.227413 14.8787 0.682239 15.3272C1.13706 15.7758 1.8193 16 2.72896 16ZM2.74634 14.6024C2.31179 14.6024 1.97864 14.488 1.74688 14.2594C1.51512 14.0308 1.39924 13.6908 1.39924 13.2394V2.77812C1.39924 2.32668 1.51512 1.98665 1.74688 1.75804C1.97864 1.52943 2.31179 1.41512 2.74634 1.41512H13.2537C13.6824 1.41512 14.0141 1.52943 14.2488 1.75804C14.4834 1.98665 14.6007 2.32668 14.6007 2.77812V13.2394C14.6007 13.6908 14.4834 14.0308 14.2488 14.2594C14.0141 14.488 13.6824 14.6024 13.2537 14.6024H2.74634ZM10.7333 10.14C10.9245 10.14 11.078 10.0749 11.1939 9.94469C11.3098 9.81449 11.3677 9.6481 11.3677 9.44553V5.35653C11.3677 5.09609 11.3025 4.91088 11.1722 4.80091C11.0418 4.69094 10.8666 4.63596 10.6464 4.63596H6.5182C6.31541 4.63596 6.15318 4.69384 6.03151 4.8096C5.90984 4.92535 5.849 5.07872 5.849 5.26971C5.849 5.4665 5.91129 5.62277 6.03586 5.73852C6.16043 5.85427 6.327 5.91215 6.53558 5.91215H8.11733L9.40359 5.77324L8.05649 7.03207L4.84954 10.2356C4.71049 10.3744 4.64096 10.5278 4.64096 10.6956C4.64096 10.8924 4.6989 11.0502 4.81478 11.1688C4.93066 11.2875 5.0842 11.3468 5.27539 11.3468C5.47239 11.3468 5.63752 11.2802 5.77079 11.1471L8.97775 7.94363L10.2206 6.61535L10.0902 7.96099V9.46286C10.0902 9.67124 10.1496 9.83621 10.2684 9.95776C10.3871 10.0793 10.5421 10.14 10.7333 10.14Z" fill="#898989"/>
</g>
<defs>
<clipPath id="clip0_1124_11">
<rect width="16" height="16" fill="white"/>
</clipPath>
</defs>
</svg>
