<svg width="23" height="23" viewBox="0 0 23 23" fill="none" xmlns="http://www.w3.org/2000/svg">
<path fill-rule="evenodd" clip-rule="evenodd" d="M1.4375 11.5C1.4375 11.3094 1.51323 11.1266 1.64802 10.9918C1.78281 10.857 1.96563 10.7812 2.15625 10.7812H19.1087L14.5849 6.25887C14.4499 6.12391 14.3741 5.94086 14.3741 5.74999C14.3741 5.55913 14.4499 5.37608 14.5849 5.24112C14.7198 5.10616 14.9029 5.03033 15.0938 5.03033C15.2846 5.03033 15.4677 5.10616 15.6026 5.24112L21.3526 10.9911C21.4196 11.0579 21.4727 11.1372 21.5089 11.2245C21.5451 11.3118 21.5638 11.4055 21.5638 11.5C21.5638 11.5945 21.5451 11.6881 21.5089 11.7755C21.4727 11.8628 21.4196 11.9421 21.3526 12.0089L15.6026 17.7589C15.4677 17.8938 15.2846 17.9697 15.0938 17.9697C14.9029 17.9697 14.7198 17.8938 14.5849 17.7589C14.4499 17.6239 14.3741 17.4409 14.3741 17.25C14.3741 17.0591 14.4499 16.8761 14.5849 16.7411L19.1087 12.2187H2.15625C1.96563 12.2187 1.78281 12.143 1.64802 12.0082C1.51323 11.8734 1.4375 11.6906 1.4375 11.5Z" fill="black"/>
</svg>
