<svg width="21" height="20" viewBox="0 0 21 20" fill="none" xmlns="http://www.w3.org/2000/svg">
<g clip-path="url(#clip0_1175_536)">
<path d="M2.89462 18.1546H17.9672C18.9352 18.1546 19.6596 17.9173 20.1405 17.4426C20.6214 16.968 20.8618 16.2529 20.8618 15.2975V6.18267C20.8618 5.22093 20.6214 4.5043 20.1405 4.03279C19.6596 3.56128 18.9352 3.32553 17.9672 3.32553H2.89462C1.93287 3.32553 1.20999 3.56128 0.725996 4.03279C0.241999 4.5043 0 5.22093 0 6.18267V15.2975C0 16.2529 0.241999 16.968 0.725996 17.4426C1.20999 17.9173 1.93287 18.1546 2.89462 18.1546ZM2.91335 16.6558C2.45746 16.6558 2.10929 16.5371 1.86885 16.2998C1.62842 16.0625 1.5082 15.7034 1.5082 15.2224V6.25762C1.5082 5.77674 1.62842 5.41764 1.86885 5.18033C2.10929 4.94302 2.45746 4.82436 2.91335 4.82436H17.9484C18.4106 4.82436 18.7604 4.94302 18.9977 5.18033C19.235 5.41764 19.3537 5.77674 19.3537 6.25762V15.2224C19.3537 15.7034 19.235 16.0625 18.9977 16.2998C18.7604 16.5371 18.4106 16.6558 17.9484 16.6558H2.91335ZM0.777518 8.76815C2.22639 9.26777 3.76425 9.64247 5.39111 9.89228C7.01796 10.1421 8.69945 10.267 10.4356 10.267C12.1718 10.267 13.8517 10.1421 15.4754 9.89228C17.0992 9.64247 18.6355 9.26777 20.0843 8.76815V7.16628C18.6667 7.71585 17.146 8.12803 15.5222 8.40282C13.8985 8.6776 12.203 8.81499 10.4356 8.81499C8.66198 8.81499 6.96331 8.6776 5.33958 8.40282C3.71585 8.12803 2.19516 7.71585 0.777518 7.16628V8.76815ZM8.97424 11.9531H11.8876C12.5808 11.9531 12.9274 11.6128 12.9274 10.9321V9.49883H7.9438V10.9321C7.9438 11.6128 8.28728 11.9531 8.97424 11.9531ZM5.68618 4.14052H7.13818V2.48244C7.13818 2.12646 7.2381 1.85168 7.43795 1.65808C7.63779 1.46448 7.91882 1.36768 8.28103 1.36768H12.5808C12.9492 1.36768 13.2334 1.46448 13.4333 1.65808C13.6331 1.85168 13.733 2.12646 13.733 2.48244V4.12179H15.185V2.58548C15.185 1.70492 14.9587 1.05387 14.5059 0.632319C14.0531 0.210773 13.4052 0 12.5621 0H8.29977C7.50039 0 6.86495 0.210773 6.39345 0.632319C5.92194 1.05387 5.68618 1.70492 5.68618 2.58548V4.14052Z" fill="white"/>
</g>
<defs>
<clipPath id="clip0_1175_536">
<rect width="20.8618" height="20" fill="white"/>
</clipPath>
</defs>
</svg>
