<svg width="63" height="13" viewBox="0 0 63 13" fill="none" xmlns="http://www.w3.org/2000/svg">
<path d="M0.882 0.00399935H2.478V3.7H2.506C2.618 3.52267 2.75333 3.364 2.912 3.224C3.07067 3.084 3.24333 2.96733 3.43 2.874C3.626 2.77133 3.82667 2.69667 4.032 2.65C4.24667 2.594 4.45667 2.566 4.662 2.566C5.23133 2.566 5.726 2.66867 6.146 2.874C6.57533 3.07 6.93 3.34533 7.21 3.7C7.49 4.04533 7.7 4.45133 7.84 4.918C7.98 5.38467 8.05 5.884 8.05 6.416C8.05 6.90133 7.98467 7.37267 7.854 7.83C7.73267 8.28733 7.54133 8.69333 7.28 9.048C7.028 9.39333 6.706 9.67333 6.314 9.888C5.922 10.0933 5.46 10.196 4.928 10.196C4.68533 10.196 4.438 10.1773 4.186 10.14C3.94333 10.112 3.71 10.0513 3.486 9.958C3.262 9.86467 3.05667 9.74333 2.87 9.594C2.69267 9.44467 2.54333 9.24867 2.422 9.006H2.394V10H0.882V0.00399935ZM6.454 6.388C6.454 6.06133 6.412 5.744 6.328 5.436C6.244 5.128 6.118 4.85733 5.95 4.624C5.782 4.38133 5.572 4.19 5.32 4.05C5.068 3.90067 4.77867 3.826 4.452 3.826C3.78 3.826 3.27133 4.05933 2.926 4.526C2.59 4.99267 2.422 5.61333 2.422 6.388C2.422 6.752 2.464 7.09267 2.548 7.41C2.64133 7.718 2.77667 7.984 2.954 8.208C3.13133 8.432 3.34133 8.60933 3.584 8.74C3.836 8.87067 4.12533 8.936 4.452 8.936C4.816 8.936 5.124 8.86133 5.376 8.712C5.628 8.56267 5.83333 8.37133 5.992 8.138C6.16 7.89533 6.27667 7.62467 6.342 7.326C6.41667 7.018 6.454 6.70533 6.454 6.388ZM8.60059 2.762H10.3506L12.2406 8.166H12.2686L14.1026 2.762H15.7686L12.9546 10.392C12.8239 10.7187 12.6933 11.0313 12.5626 11.33C12.4413 11.6287 12.2873 11.89 12.1006 12.114C11.9233 12.3473 11.6993 12.5293 11.4286 12.66C11.1579 12.8 10.8126 12.87 10.3926 12.87C10.0193 12.87 9.65059 12.842 9.28659 12.786V11.442C9.41726 11.4607 9.54326 11.4793 9.66459 11.498C9.78593 11.526 9.91193 11.54 10.0426 11.54C10.2293 11.54 10.3833 11.5167 10.5046 11.47C10.6259 11.4233 10.7239 11.3533 10.7986 11.26C10.8826 11.176 10.9526 11.0733 11.0086 10.952C11.0646 10.8307 11.1159 10.6907 11.1626 10.532L11.3446 9.972L8.60059 2.762ZM22.6191 4.526H25.0271C25.5311 4.526 25.9091 4.414 26.1611 4.19C26.4131 3.966 26.5391 3.602 26.5391 3.098C26.5391 2.61267 26.4131 2.26267 26.1611 2.048C25.9091 1.824 25.5311 1.712 25.0271 1.712H22.6191V4.526ZM20.4211 0.00399935H25.8111C26.2591 0.00399935 26.6604 0.0786662 27.0151 0.228C27.3791 0.368 27.6871 0.564 27.9391 0.816C28.2004 1.068 28.3964 1.362 28.5271 1.698C28.6671 2.02467 28.7371 2.37933 28.7371 2.762C28.7371 3.35 28.6111 3.85867 28.3591 4.288C28.1164 4.71733 27.7151 5.044 27.1551 5.268V5.296C27.4257 5.37067 27.6497 5.48733 27.8271 5.646C28.0044 5.79533 28.1491 5.97733 28.2611 6.192C28.3731 6.39733 28.4524 6.626 28.4991 6.878C28.5551 7.13 28.5924 7.382 28.6111 7.634C28.6204 7.79267 28.6297 7.97933 28.6391 8.194C28.6484 8.40867 28.6624 8.628 28.6811 8.852C28.7091 9.076 28.7464 9.29067 28.7931 9.496C28.8491 9.692 28.9284 9.86 29.0311 10H26.8331C26.7117 9.68267 26.6371 9.30467 26.6091 8.866C26.5811 8.42733 26.5391 8.00733 26.4831 7.606C26.4084 7.08333 26.2497 6.70067 26.0071 6.458C25.7644 6.21533 25.3677 6.094 24.8171 6.094H22.6191V10H20.4211V0.00399935ZM32.0786 6.388C32.0786 6.67733 32.1066 6.962 32.1626 7.242C32.2186 7.51267 32.3119 7.76 32.4426 7.984C32.5826 8.19867 32.7646 8.37133 32.9886 8.502C33.2126 8.63267 33.4926 8.698 33.8286 8.698C34.1646 8.698 34.4446 8.63267 34.6686 8.502C34.9019 8.37133 35.0839 8.19867 35.2146 7.984C35.3546 7.76 35.4526 7.51267 35.5086 7.242C35.5646 6.962 35.5926 6.67733 35.5926 6.388C35.5926 6.09867 35.5646 5.814 35.5086 5.534C35.4526 5.254 35.3546 5.00667 35.2146 4.792C35.0839 4.57733 34.9019 4.40467 34.6686 4.274C34.4446 4.134 34.1646 4.064 33.8286 4.064C33.4926 4.064 33.2126 4.134 32.9886 4.274C32.7646 4.40467 32.5826 4.57733 32.4426 4.792C32.3119 5.00667 32.2186 5.254 32.1626 5.534C32.1066 5.814 32.0786 6.09867 32.0786 6.388ZM30.0906 6.388C30.0906 5.80933 30.1793 5.28667 30.3566 4.82C30.5339 4.344 30.7859 3.94267 31.1126 3.616C31.4393 3.28 31.8313 3.02333 32.2886 2.846C32.7459 2.65933 33.2593 2.566 33.8286 2.566C34.3979 2.566 34.9113 2.65933 35.3686 2.846C35.8353 3.02333 36.2319 3.28 36.5586 3.616C36.8853 3.94267 37.1373 4.344 37.3146 4.82C37.4919 5.28667 37.5806 5.80933 37.5806 6.388C37.5806 6.96667 37.4919 7.48933 37.3146 7.956C37.1373 8.42267 36.8853 8.824 36.5586 9.16C36.2319 9.48667 35.8353 9.73867 35.3686 9.916C34.9113 10.0933 34.3979 10.182 33.8286 10.182C33.2593 10.182 32.7459 10.0933 32.2886 9.916C31.8313 9.73867 31.4393 9.48667 31.1126 9.16C30.7859 8.824 30.5339 8.42267 30.3566 7.956C30.1793 7.48933 30.0906 6.96667 30.0906 6.388ZM39.0552 0.00399935H41.0432V5.366L43.5492 2.762H45.9012L43.1712 5.422L46.2092 10H43.8012L41.8132 6.766L41.0432 7.508V10H39.0552V0.00399935ZM47.0943 0.00399935H49.0823V5.366L51.5883 2.762H53.9403L51.2103 5.422L54.2483 10H51.8403L49.8522 6.766L49.0823 7.508V10H47.0943V0.00399935ZM56.9953 1.642H55.0073V0.00399935H56.9953V1.642ZM55.0073 2.762H56.9953V10H55.0073V2.762ZM61.0807 2.762H62.5367V4.092H61.0807V7.676C61.0807 8.012 61.1367 8.236 61.2487 8.348C61.3607 8.46 61.5847 8.516 61.9207 8.516C62.0327 8.516 62.14 8.51133 62.2427 8.502C62.3454 8.49267 62.4434 8.47867 62.5367 8.46V10C62.3687 10.028 62.182 10.0467 61.9767 10.056C61.7714 10.0653 61.5707 10.07 61.3747 10.07C61.0667 10.07 60.7727 10.0467 60.4927 10C60.222 9.96267 59.9794 9.88333 59.7647 9.762C59.5594 9.64067 59.396 9.468 59.2747 9.244C59.1534 9.02 59.0927 8.726 59.0927 8.362V4.092H57.8887V2.762H59.0927V0.591999H61.0807V2.762Z" fill="#898989"/>
</svg>
