<svg width="24" height="20" viewBox="0 0 24 20" fill="none" xmlns="http://www.w3.org/2000/svg">
<g clip-path="url(#clip0_1175_540)">
<path d="M0 19.151C0 19.4089 0.0788109 19.6149 0.236433 19.769C0.394054 19.923 0.601828 20 0.859754 20H22.2354C22.4718 20 22.676 19.9176 22.8479 19.7528C23.0199 19.5881 23.1059 19.3839 23.1059 19.1403C23.1059 18.9038 23.0199 18.7014 22.8479 18.5331C22.676 18.3647 22.4718 18.2805 22.2354 18.2805H2.03117C1.83056 18.2805 1.73026 18.1802 1.73026 17.9796V0.988721C1.73026 0.759454 1.64607 0.558844 1.4777 0.386892C1.30933 0.214942 1.10693 0.128967 0.870501 0.128967C0.626904 0.128967 0.420921 0.214942 0.252553 0.386892C0.0841842 0.558844 0 0.759454 0 0.988721V19.151ZM1.12843 12.4664L8.0387 8.46858L13.0146 12.7351L21.8593 7.46912L21.1821 6.37294L13.1005 11.1875L8.14617 6.94251L1.12843 10.9941V12.4664ZM7.89899 9.91941C8.25006 9.91941 8.57067 9.83344 8.86084 9.66149C9.15101 9.48954 9.38207 9.25848 9.55402 8.96831C9.72597 8.67815 9.81195 8.35753 9.81195 8.00646C9.81195 7.6554 9.72597 7.33479 9.55402 7.04462C9.38207 6.75445 9.15101 6.52518 8.86084 6.35681C8.57067 6.18845 8.25006 6.10426 7.89899 6.10426C7.54792 6.10426 7.22731 6.18845 6.93714 6.35681C6.64697 6.52518 6.41591 6.75445 6.24397 7.04462C6.07201 7.33479 5.98603 7.6554 5.98603 8.00646C5.98603 8.35753 6.07201 8.67815 6.24397 8.96831C6.41591 9.25848 6.64697 9.48954 6.93714 9.66149C7.22731 9.83344 7.54792 9.91941 7.89899 9.91941ZM12.9715 13.8636C13.3226 13.8636 13.6432 13.7776 13.9334 13.6056C14.2235 13.4337 14.4528 13.2026 14.6212 12.9124C14.7895 12.6223 14.8737 12.3017 14.8737 11.9506C14.8737 11.5996 14.7895 11.2789 14.6212 10.9887C14.4528 10.6986 14.2235 10.4693 13.9334 10.3009C13.6432 10.1326 13.3226 10.0484 12.9715 10.0484C12.6205 10.0484 12.2999 10.1326 12.0097 10.3009C11.7195 10.4693 11.4885 10.6986 11.3165 10.9887C11.1445 11.2789 11.0586 11.5996 11.0586 11.9506C11.0586 12.3017 11.1445 12.6223 11.3165 12.9124C11.4885 13.2026 11.7195 13.4337 12.0097 13.6056C12.2999 13.7776 12.6205 13.8636 12.9715 13.8636ZM21.0747 8.97369C21.4258 8.97369 21.7464 8.88771 22.0366 8.71576C22.3267 8.54381 22.5578 8.31275 22.7298 8.02259C22.9017 7.73242 22.9877 7.4118 22.9877 7.06074C22.9877 6.70967 22.9017 6.38905 22.7298 6.09888C22.5578 5.80871 22.3267 5.57766 22.0366 5.40571C21.7464 5.23375 21.4258 5.14778 21.0747 5.14778C20.7237 5.14778 20.4031 5.23375 20.1129 5.40571C19.8227 5.57766 19.5917 5.80871 19.4197 6.09888C19.2477 6.38905 19.1618 6.70967 19.1618 7.06074C19.1618 7.4118 19.2477 7.73242 19.4197 8.02259C19.5917 8.31275 19.8227 8.54381 20.1129 8.71576C20.4031 8.88771 20.7237 8.97369 21.0747 8.97369Z" fill="white"/>
</g>
<defs>
<clipPath id="clip0_1175_540">
<rect width="23.1059" height="20" fill="white"/>
</clipPath>
</defs>
</svg>
