<svg width="16" height="17" viewBox="0 0 16 17" fill="none" xmlns="http://www.w3.org/2000/svg">
<g clip-path="url(#clip0_1078_397)">
<path d="M10.455 0.814514H5.54352C1.06152 0.814514 -0.000976562 1.87701 -0.000976562 6.35901V11.2705C-0.000976562 15.7525 1.06152 16.815 5.54352 16.815H10.455C14.937 16.815 15.9995 15.7525 15.9995 11.2705V6.35901C15.9995 1.87701 14.9265 0.814514 10.455 0.814514ZM12.916 12.2285H11.7545C11.3145 12.2285 11.179 11.8795 10.3875 11.0775C9.70002 10.411 9.39552 10.3225 9.22602 10.3225C8.98652 10.3225 8.91852 10.39 8.91852 10.7185V11.768C8.91852 12.0495 8.83002 12.2185 8.08502 12.2185C6.85302 12.2185 5.48602 11.4735 4.52752 10.0855C3.08202 8.05151 2.68652 6.52801 2.68652 6.21301C2.68652 6.04351 2.75402 5.88501 3.07952 5.88501H4.24352C4.53802 5.88501 4.65002 6.02051 4.76452 6.33551C5.34002 7.99701 6.29852 9.45251 6.69402 9.45251C6.84002 9.45251 6.90752 9.38501 6.90752 9.01251V7.29651C6.86302 6.50501 6.44652 6.43701 6.44652 6.15601C6.44652 6.02051 6.55852 5.88501 6.73802 5.88501H8.56852C8.81602 5.88501 8.90702 6.02051 8.90702 6.31201V8.62701C8.90702 8.87701 9.01902 8.96551 9.08652 8.96551C9.23252 8.96551 9.35752 8.87701 9.62802 8.60601C10.464 7.66851 11.063 6.22301 11.063 6.22301C11.141 6.05351 11.2765 5.89501 11.571 5.89501H12.735C13.084 5.89501 13.162 6.07451 13.084 6.32451C12.938 7.00151 11.5135 9.01201 11.5135 9.01201C11.391 9.21501 11.344 9.30351 11.5135 9.53001C11.6385 9.69951 12.045 10.051 12.3155 10.366C12.813 10.931 13.1955 11.405 13.2975 11.733C13.412 12.0585 13.243 12.228 12.9145 12.228L12.916 12.2285Z" fill="black"/>
</g>
<defs>
<clipPath id="clip0_1078_397">
<rect width="16" height="16" fill="white" transform="translate(0 0.814514)"/>
</clipPath>
</defs>
</svg>
