<svg width="16" height="16" viewBox="0 0 16 16" fill="none" xmlns="http://www.w3.org/2000/svg">
<g clip-path="url(#clip0_1077_323)">
<path d="M2 14.6507C1.82319 14.6507 1.65362 14.5804 1.5286 14.4554C1.40357 14.3304 1.33333 14.1608 1.33333 13.984V0H0V13.984C0 14.5144 0.210714 15.0231 0.585786 15.3982C0.960859 15.7733 1.46957 15.984 2 15.984H16V14.6507H2Z" fill="black"/>
<path d="M4.66659 8H3.33325V12.6667H4.66659V8Z" fill="black"/>
<path d="M8.00008 6.66669H6.66675V12.6667H8.00008V6.66669Z" fill="black"/>
<path d="M11.3333 8.66669H10V12.6667H11.3333V8.66669Z" fill="black"/>
<path d="M14.6666 6H13.3333V12.6667H14.6666V6Z" fill="black"/>
<path d="M7.33323 2.94265L10.6666 6.27598L15.8046 1.13798L14.8619 0.195312L10.6666 4.39065L7.33323 1.05731L3.52856 4.86198L4.47123 5.80465L7.33323 2.94265Z" fill="black"/>
</g>
<defs>
<clipPath id="clip0_1077_323">
<rect width="16" height="16" fill="white"/>
</clipPath>
</defs>
</svg>
