<svg width="16" height="16" viewBox="0 0 16 16" fill="none" xmlns="http://www.w3.org/2000/svg">
<g clip-path="url(#clip0_1078_338)">
<g clip-path="url(#clip1_1078_338)">
<path d="M0.22689 14.138C0.565941 14.6233 0.981278 15.017 1.4729 15.319C1.96453 15.6211 2.48885 15.8238 3.04586 15.927C3.60287 16.0303 4.15262 16.0239 4.6951 15.9077C5.23758 15.7915 5.72921 15.5605 6.16997 15.2145C6.67371 14.8169 7.04061 14.3587 7.27067 13.8397C7.50074 13.3209 7.58549 12.7813 7.52493 12.221C7.46441 11.6608 7.25009 11.1199 6.88198 10.5984C6.53808 10.1028 6.14817 9.73487 5.71226 9.49477C5.27633 9.25467 4.83193 9.15012 4.37905 9.1811C3.92618 9.21209 3.49873 9.39021 3.09671 9.71549C2.81579 9.94269 2.61357 10.1867 2.49005 10.4474C2.36654 10.7082 2.27815 10.9663 2.22487 11.2219C2.17159 11.4775 2.11589 11.7111 2.05777 11.9228C1.99964 12.1345 1.89066 12.3024 1.73082 12.4263C1.54677 12.5708 1.36756 12.6586 1.19319 12.6896C1.01882 12.7206 0.854137 12.7438 0.69914 12.7593C0.544145 12.7748 0.398838 12.8368 0.263217 12.9452C0.117909 13.0691 0.0319356 13.2369 0.00529585 13.4486C-0.0213439 13.6603 0.0525209 13.8901 0.22689 14.138ZM1.70903 14.014C1.66059 13.9624 1.63637 13.9108 1.63637 13.8591C1.63637 13.8075 1.65333 13.7636 1.68723 13.7274C1.72114 13.6965 1.78289 13.6668 1.8725 13.6384C1.96211 13.61 2.06503 13.5687 2.18128 13.5145C2.29752 13.4603 2.40651 13.3763 2.50822 13.2628C2.68743 13.0769 2.817 12.8742 2.89692 12.6548C2.97684 12.4353 3.04586 12.212 3.10398 11.9848C3.1621 11.7576 3.2396 11.5369 3.33647 11.3226C3.43335 11.1083 3.5835 10.9186 3.78693 10.7533C4.01458 10.5623 4.2616 10.4565 4.528 10.4358C4.79439 10.4152 5.05837 10.4745 5.31992 10.6139C5.58148 10.7533 5.81881 10.9676 6.03193 11.2568C6.26926 11.5872 6.40368 11.9319 6.43516 12.2908C6.46664 12.6496 6.40246 12.9981 6.24263 13.3363C6.08279 13.6745 5.84061 13.9779 5.51608 14.2464C5.24 14.4787 4.93607 14.6504 4.60428 14.7614C4.27249 14.8724 3.93223 14.9202 3.5835 14.9047C3.23476 14.8892 2.89813 14.8092 2.57361 14.6646C2.24909 14.52 1.96089 14.3032 1.70903 14.014ZM7.33243 12.2946C7.72478 12.2482 8.09532 12.1191 8.44404 11.9074C8.79277 11.6957 9.15119 11.391 9.51931 10.9934C9.90682 10.5804 10.3209 10.0976 10.7617 9.54513C11.2025 8.99261 11.6469 8.41043 12.0949 7.79859C12.5429 7.18674 12.9716 6.58391 13.3808 5.99012C13.7901 5.39633 14.1619 4.8503 14.4961 4.35204C14.8303 3.85377 15.1052 3.43941 15.3208 3.10895C15.5363 2.7785 15.6706 2.57454 15.7239 2.49709C15.908 2.22859 16 1.95493 16 1.67611C16 1.39729 15.9346 1.14299 15.8039 0.913218C15.6731 0.683449 15.4999 0.498858 15.2844 0.359447C15.0689 0.220035 14.8303 0.15033 14.5687 0.15033C14.3072 0.15033 14.0481 0.245852 13.7914 0.436897C13.7187 0.493695 13.5274 0.635689 13.2174 0.86288C12.9074 1.09007 12.5187 1.3818 12.0513 1.73807C11.5839 2.09434 11.0717 2.49063 10.5147 2.92694C9.95763 3.36325 9.39214 3.82021 8.81819 4.29782C8.24424 4.77543 7.69812 5.24917 7.17986 5.71904C6.66159 6.18891 6.20872 6.63296 5.82123 7.0512C5.45796 7.44361 5.17583 7.82313 4.97482 8.18973C4.77381 8.5563 4.64908 8.94354 4.60065 9.35146L5.74131 9.68456C5.751 9.40053 5.8285 9.11652 5.97381 8.83254C6.11911 8.54856 6.34192 8.24908 6.64222 7.93412C7.02971 7.52622 7.47775 7.0938 7.98635 6.63683C8.49488 6.17987 9.0301 5.71904 9.592 5.25433C10.1538 4.78963 10.7048 4.34429 11.2448 3.91831C11.7849 3.49233 12.2802 3.10766 12.7306 2.7643C13.1811 2.42093 13.5504 2.14081 13.8386 1.92396C14.1268 1.70709 14.2975 1.578 14.3508 1.53669C14.4331 1.46957 14.5119 1.45021 14.5869 1.47861C14.662 1.50701 14.7128 1.56251 14.7395 1.64513C14.7661 1.72774 14.748 1.81552 14.685 1.90846C14.656 1.96009 14.5409 2.13952 14.3399 2.44675C14.1389 2.75397 13.8773 3.14767 13.5552 3.62787C13.2331 4.10807 12.8711 4.63731 12.469 5.21561C12.067 5.79391 11.6469 6.38254 11.2085 6.98149C10.7702 7.58044 10.3354 8.15228 9.90439 8.697C9.47328 9.24175 9.06883 9.71549 8.69104 10.1182C8.39558 10.4332 8.12557 10.663 7.881 10.8076C7.63638 10.9521 7.38814 11.0399 7.13627 11.0709L7.33243 12.2946ZM8.61843 10.3506L9.5484 10.095C9.52414 9.72842 9.42847 9.36827 9.26137 9.01455C9.09428 8.66088 8.87753 8.33947 8.61114 8.05031C8.34475 7.76116 8.04929 7.52494 7.72477 7.34164C7.40024 7.15833 7.06604 7.0512 6.72214 7.02022L6.40973 8.0116C6.64222 8.00642 6.88682 8.07611 7.14353 8.22066C7.40023 8.36527 7.63998 8.55633 7.86277 8.79383C8.08562 9.03134 8.26727 9.28822 8.40774 9.56448C8.5482 9.84069 8.61843 10.1027 8.61843 10.3506Z" fill="black" fill-opacity="0.85"/>
</g>
</g>
<defs>
<clipPath id="clip0_1078_338">
<rect width="16" height="16" fill="white"/>
</clipPath>
<clipPath id="clip1_1078_338">
<rect width="16" height="16" fill="white"/>
</clipPath>
</defs>
</svg>
