<svg width="24" height="24" viewBox="0 0 24 24" fill="none" xmlns="http://www.w3.org/2000/svg">
<g clip-path="url(#clip0_1119_12)">
<path d="M12 23.3298C12.8157 23.3298 13.5824 23.0476 14.3 22.4832C15.0176 21.9188 15.649 21.127 16.1941 20.1078C16.7392 19.0887 17.1666 17.8913 17.4764 16.5154C17.7863 15.1397 17.9412 13.6404 17.9412 12.0177C17.9412 10.3949 17.7882 8.89173 17.4823 7.5081C17.1765 6.12446 16.751 4.92113 16.2058 3.89809C15.6607 2.87506 15.0294 2.08134 14.3118 1.51691C13.5941 0.952478 12.8235 0.670261 12 0.670261C11.1765 0.670261 10.4059 0.952478 9.68822 1.51691C8.97058 2.08134 8.34117 2.87506 7.79999 3.89809C7.25881 4.92113 6.83332 6.12446 6.52352 7.5081C6.21372 8.89173 6.05882 10.3949 6.05882 12.0177C6.05882 13.6404 6.21372 15.1397 6.52352 16.5154C6.83332 17.8913 7.26077 19.0887 7.80587 20.1078C8.35097 21.127 8.98234 21.9188 9.69999 22.4832C10.4176 23.0476 11.1843 23.3298 12 23.3298ZM12 2.09309C12.5725 2.09309 13.1215 2.35767 13.647 2.88682C14.1725 3.41598 14.6392 4.13916 15.047 5.05636C15.4548 5.97356 15.7764 7.0299 16.0117 8.22539C16.247 9.42089 16.3647 10.685 16.3647 12.0177C16.3647 13.3347 16.247 14.585 16.0117 15.7688C15.7764 16.9525 15.4548 18.0049 15.047 18.9261C14.6392 19.8472 14.1725 20.5723 13.647 21.1014C13.1215 21.6306 12.5725 21.8952 12 21.8952C11.4274 21.8952 10.8784 21.6306 10.3529 21.1014C9.82744 20.5723 9.36077 19.8472 8.95293 18.9261C8.54509 18.0049 8.22352 16.9525 7.98823 15.7688C7.75293 14.585 7.63528 13.3347 7.63528 12.0177C7.63528 10.685 7.75293 9.42089 7.98823 8.22539C8.22352 7.0299 8.54509 5.97356 8.95293 5.05636C9.36077 4.13916 9.82744 3.41598 10.3529 2.88682C10.8784 2.35767 11.4274 2.09309 12 2.09309ZM11.2353 0.834886V23.1064H12.7765V0.834886H11.2353ZM12 16.4155C10.7921 16.4155 9.64705 16.5154 8.5647 16.7153C7.48235 16.9153 6.50784 17.2014 5.64117 17.5737C4.77451 17.9461 4.06666 18.3832 3.51764 18.8849L4.70588 19.8608C5.22352 19.4532 5.84509 19.1063 6.57058 18.8202C7.29607 18.5341 8.11568 18.3185 9.0294 18.1735C9.94312 18.0285 10.9333 17.9559 12 17.9559C13.0667 17.9559 14.0569 18.0285 14.9706 18.1735C15.8843 18.3185 16.7039 18.5341 17.4294 18.8202C18.1549 19.1063 18.7764 19.4532 19.2941 19.8608L20.4824 18.8849C19.9334 18.3832 19.2255 17.9461 18.3589 17.5737C17.4922 17.2014 16.5177 16.9153 15.4353 16.7153C14.3529 16.5154 13.2078 16.4155 12 16.4155ZM22.8588 11.2181H1.14118V12.7585H22.8588V11.2181ZM12 7.63157C13.2078 7.63157 14.3529 7.53162 15.4353 7.33172C16.5177 7.13181 17.4922 6.84568 18.3589 6.47331C19.2255 6.10094 19.9334 5.6639 20.4824 5.16219L19.2941 4.18619C18.7764 4.59384 18.1549 4.94073 17.4294 5.22686C16.7039 5.513 15.8843 5.72858 14.9706 5.8736C14.0569 6.01863 13.0667 6.09114 12 6.09114C10.9333 6.09114 9.94312 6.01863 9.0294 5.8736C8.11568 5.72858 7.29607 5.513 6.57058 5.22686C5.84509 4.94073 5.22352 4.59384 4.70588 4.18619L3.51764 5.16219C4.06666 5.6639 4.77451 6.10094 5.64117 6.47331C6.50784 6.84568 7.48235 7.13181 8.5647 7.33172C9.64705 7.53162 10.7921 7.63157 12 7.63157ZM12 23.9883C13.6392 23.9883 15.1824 23.6747 16.6294 23.0475C18.0765 22.4204 19.3529 21.5542 20.4588 20.4488C21.5647 19.3435 22.4314 18.0677 23.0588 16.6213C23.6863 15.175 24 13.6326 24 11.9941C24 10.3557 23.6863 8.81334 23.0588 7.36699C22.4314 5.92064 21.5647 4.64479 20.4588 3.53944C19.3529 2.4341 18.0745 1.56786 16.6235 0.940717C15.1725 0.313572 13.6274 0 11.9882 0C10.349 0 8.80587 0.313572 7.35882 0.940717C5.91176 1.56786 4.63725 2.4341 3.53529 3.53944C2.43333 4.64479 1.56863 5.92064 0.941175 7.36699C0.313725 8.81334 0 10.3557 0 11.9941C0 13.6326 0.313725 15.175 0.941175 16.6213C1.56863 18.0677 2.43529 19.3435 3.54117 20.4488C4.64706 21.5542 5.92352 22.4204 7.37057 23.0475C8.81763 23.6747 10.3608 23.9883 12 23.9883ZM12 22.3891C10.5804 22.3891 9.24313 22.1167 7.98823 21.5718C6.73333 21.027 5.62744 20.2763 4.67058 19.32C3.71372 18.3636 2.96275 17.2582 2.41765 16.0039C1.87254 14.7496 1.59999 13.413 1.59999 11.9941C1.59999 10.5752 1.87254 9.23863 2.41765 7.98434C2.96275 6.73005 3.71176 5.6247 4.6647 4.66831C5.61764 3.71191 6.72156 2.9613 7.97646 2.41647C9.23136 1.87163 10.5686 1.59921 11.9882 1.59921C13.4079 1.59921 14.7451 1.87163 15.9999 2.41647C17.2549 2.9613 18.3627 3.71191 19.3235 4.66831C20.2843 5.6247 21.0372 6.73005 21.5823 7.98434C22.1274 9.23863 22.4 10.5752 22.4 11.9941C22.4 13.413 22.1274 14.7496 21.5823 16.0039C21.0372 17.2582 20.2862 18.3636 19.3294 19.32C18.3725 20.2763 17.2666 21.027 16.0117 21.5718C14.7568 22.1167 13.4196 22.3891 12 22.3891Z" fill="white"/>
</g>
<defs>
<clipPath id="clip0_1119_12">
<rect width="24" height="24" fill="white"/>
</clipPath>
</defs>
</svg>
