<svg width="163" height="29" viewBox="0 0 163 29" fill="none" xmlns="http://www.w3.org/2000/svg">
<path d="M4.5216 12.721V7.294H9.4752C10.512 7.294 11.2896 7.51 11.808 7.942C12.3264 8.356 12.5856 9.031 12.5856 9.967C12.5856 10.939 12.3264 11.641 11.808 12.073C11.2896 12.505 10.512 12.721 9.4752 12.721H4.5216ZM0 4V23.278H4.5216V15.745H9.0432C10.176 15.745 10.992 15.979 11.4912 16.447C11.9904 16.915 12.3168 17.653 12.4704 18.661C12.5856 19.435 12.672 20.245 12.7296 21.091C12.7872 21.937 12.9408 22.666 13.1904 23.278H17.712C17.5008 23.008 17.3376 22.684 17.2224 22.306C17.1264 21.91 17.0496 21.496 16.992 21.064C16.9536 20.632 16.9248 20.209 16.9056 19.795C16.8864 19.381 16.8672 19.021 16.848 18.715C16.8096 18.229 16.7328 17.743 16.6176 17.257C16.5216 16.771 16.3584 16.33 16.128 15.934C15.8976 15.52 15.6 15.169 15.2352 14.881C14.8704 14.575 14.4096 14.35 13.8528 14.206V14.152C15.0048 13.72 15.8304 13.09 16.3296 12.262C16.848 11.434 17.1072 10.453 17.1072 9.319C17.1072 8.581 16.9632 7.897 16.6752 7.267C16.4064 6.619 16.0032 6.052 15.4656 5.566C14.9472 5.08 14.3136 4.702 13.5648 4.432C12.8352 4.144 12.0096 4 11.088 4H0ZM23.9812 16.312C23.9812 15.754 24.0388 15.205 24.154 14.665C24.2692 14.125 24.4612 13.648 24.73 13.234C25.018 12.82 25.3924 12.487 25.8532 12.235C26.314 11.965 26.89 11.83 27.5812 11.83C28.2724 11.83 28.8484 11.965 29.3092 12.235C29.7892 12.487 30.1636 12.82 30.4324 13.234C30.7204 13.648 30.922 14.125 31.0372 14.665C31.1524 15.205 31.21 15.754 31.21 16.312C31.21 16.87 31.1524 17.419 31.0372 17.959C30.922 18.481 30.7204 18.958 30.4324 19.39C30.1636 19.804 29.7892 20.137 29.3092 20.389C28.8484 20.641 28.2724 20.767 27.5812 20.767C26.89 20.767 26.314 20.641 25.8532 20.389C25.3924 20.137 25.018 19.804 24.73 19.39C24.4612 18.958 24.2692 18.481 24.154 17.959C24.0388 17.419 23.9812 16.87 23.9812 16.312ZM19.8916 16.312C19.8916 17.428 20.074 18.436 20.4388 19.336C20.8036 20.236 21.322 21.01 21.994 21.658C22.666 22.288 23.4724 22.774 24.4132 23.116C25.354 23.458 26.41 23.629 27.5812 23.629C28.7524 23.629 29.8084 23.458 30.7492 23.116C31.7092 22.774 32.5252 22.288 33.1972 21.658C33.8692 21.01 34.3876 20.236 34.7524 19.336C35.1172 18.436 35.2996 17.428 35.2996 16.312C35.2996 15.196 35.1172 14.188 34.7524 13.288C34.3876 12.37 33.8692 11.596 33.1972 10.966C32.5252 10.318 31.7092 9.823 30.7492 9.481C29.8084 9.121 28.7524 8.941 27.5812 8.941C26.41 8.941 25.354 9.121 24.4132 9.481C23.4724 9.823 22.666 10.318 21.994 10.966C21.322 11.596 20.8036 12.37 20.4388 13.288C20.074 14.188 19.8916 15.196 19.8916 16.312ZM38.333 4V23.278H42.4226V18.472L44.0066 17.041L48.0962 23.278H53.0498L46.8002 14.449L52.4162 9.319H47.5778L42.4226 14.341V4H38.333ZM54.8706 4V23.278H58.9602V18.472L60.544 17.041L64.6336 23.278H69.5872L63.3376 14.449L68.9536 9.319H64.1152L58.9602 14.341V4H54.8706ZM75.2384 7.159V4H71.1488V7.159H75.2384ZM71.1488 9.319V23.278H75.2384V9.319H71.1488ZM83.6424 9.319V5.134H79.5528V9.319H77.076V11.884H79.5528V20.119C79.5528 20.821 79.6776 21.388 79.9272 21.82C80.1768 22.252 80.5128 22.585 80.9352 22.819C81.3768 23.053 81.876 23.206 82.4328 23.278C83.0088 23.368 83.6136 23.413 84.2472 23.413C84.6504 23.413 85.0632 23.404 85.4856 23.386C85.908 23.368 86.292 23.332 86.6376 23.278V20.308C86.4456 20.344 86.244 20.371 86.0328 20.389C85.8216 20.407 85.6008 20.416 85.3704 20.416C84.6792 20.416 84.2184 20.308 83.988 20.092C83.7576 19.876 83.6424 19.444 83.6424 18.796V11.884H86.6376V9.319H83.6424Z" fill="white"/>
<path d="M97.9141 6.08984L93.3438 27.1016H91L95.582 6.08984H97.9141ZM102.789 23.2227C100.328 23.2227 98.6758 21.7109 98.6758 19.4961V19.4727C98.6758 17.3281 100.34 16.0156 103.258 15.8398L106.609 15.6406V14.7148C106.609 13.3555 105.73 12.5352 104.16 12.5352C102.695 12.5352 101.793 13.2266 101.582 14.2109L101.559 14.3164H99.168L99.1797 14.1875C99.3555 12.0664 101.195 10.4375 104.23 10.4375C107.242 10.4375 109.152 12.0312 109.152 14.5039V23H106.609V21.0547H106.562C105.848 22.3789 104.418 23.2227 102.789 23.2227ZM101.23 19.4375C101.23 20.5156 102.121 21.1953 103.48 21.1953C105.262 21.1953 106.609 19.9883 106.609 18.3828V17.4219L103.598 17.6094C102.074 17.7031 101.23 18.3711 101.23 19.4141V19.4375ZM116.219 23.2461C113.078 23.2461 111.062 20.7617 111.062 16.8359V16.8242C111.062 12.8984 113.102 10.4375 116.195 10.4375C117.941 10.4375 119.348 11.3164 120.086 12.7695H120.133V6.08984H122.676V23H120.133V20.9141H120.086C119.348 22.3555 117.988 23.2461 116.219 23.2461ZM116.887 21.0664C118.797 21.0664 120.145 19.4023 120.145 16.8359V16.8242C120.145 14.2695 118.785 12.6055 116.887 12.6055C114.895 12.6055 113.652 14.2227 113.652 16.8242V16.8359C113.652 19.4609 114.883 21.0664 116.887 21.0664ZM125.277 23V10.6719H127.809V12.582H127.867C128.395 11.293 129.648 10.4375 131.266 10.4375C132.965 10.4375 134.207 11.3164 134.699 12.8633H134.758C135.391 11.3633 136.844 10.4375 138.602 10.4375C141.039 10.4375 142.633 12.0547 142.633 14.5273V23H140.09V15.1367C140.09 13.5312 139.234 12.6055 137.734 12.6055C136.234 12.6055 135.191 13.7305 135.191 15.2891V23H132.707V14.9492C132.707 13.5195 131.805 12.6055 130.375 12.6055C128.875 12.6055 127.809 13.7891 127.809 15.3828V23H125.277ZM146.453 8.77344C145.633 8.77344 144.977 8.11719 144.977 7.32031C144.977 6.51172 145.633 5.85547 146.453 5.85547C147.285 5.85547 147.93 6.51172 147.93 7.32031C147.93 8.11719 147.285 8.77344 146.453 8.77344ZM145.188 23V10.6719H147.719V23H145.188ZM150.332 23V10.6719H152.863V12.5352H152.922C153.566 11.2812 154.832 10.4375 156.695 10.4375C159.402 10.4375 160.961 12.1836 160.961 15.0195V23H158.418V15.5C158.418 13.6484 157.551 12.6055 155.793 12.6055C154.012 12.6055 152.863 13.8945 152.863 15.8164V23H150.332Z" fill="#E600DD"/>
</svg>
