<svg width="15" height="20" viewBox="0 0 15 20" fill="none" xmlns="http://www.w3.org/2000/svg">
<g clip-path="url(#clip0_1175_522)">
<path d="M12.0256 2.96802H12.9979C13.3731 2.96802 13.5607 3.18124 13.5607 3.60767V16.6056C13.5607 16.8614 13.528 17.0519 13.4626 17.177C13.3973 17.3021 13.2423 17.4158 12.9979 17.5181C12.4349 17.7626 11.8052 17.9772 11.1087 18.162C10.4122 18.3468 9.6844 18.489 8.92535 18.5885C8.1663 18.688 7.41151 18.7378 6.66097 18.7378C6.00142 18.7378 5.35323 18.715 4.71642 18.6695C4.0796 18.624 3.43425 18.5444 2.78038 18.4307V18.5416C3.68443 18.553 4.56716 18.5046 5.42857 18.3966C6.28997 18.2886 7.10021 18.1336 7.85927 17.9317C8.61831 17.7299 9.30062 17.4954 9.9062 17.2282C10.5117 16.9609 11.0106 16.6766 11.4029 16.3753C11.71 16.1478 11.9175 15.9318 12.0256 15.7271C12.1336 15.5223 12.1876 15.2324 12.1876 14.8571V1.25373C12.1876 0.832979 12.0853 0.518834 11.8806 0.3113C11.6759 0.103767 11.3859 0 11.0106 0C10.8799 0 10.7377 0.0156361 10.5842 0.0469083C10.4307 0.0781806 10.263 0.122246 10.081 0.179104C8.79034 0.599857 7.51954 0.935322 6.26865 1.1855C5.01777 1.43568 3.63895 1.56077 2.1322 1.56077H1.4499C0.98934 1.56077 0.632551 1.68443 0.37953 1.93177C0.12651 2.1791 0 2.51315 0 2.93391V17.5693C0 17.8991 0.0511726 18.172 0.153518 18.3881C0.255863 18.6041 0.463397 18.7889 0.776119 18.9425C1.5096 19.2608 2.39375 19.5153 3.42857 19.7058C4.46339 19.8962 5.54086 19.9914 6.66097 19.9914C7.25799 19.9914 7.8678 19.9673 8.4904 19.919C9.11299 19.8706 9.72848 19.7953 10.3368 19.6929C10.9453 19.5906 11.5323 19.457 12.098 19.2921C12.6638 19.1272 13.1855 18.9282 13.6631 18.695C14.1748 18.4506 14.5145 18.189 14.6823 17.9104C14.85 17.6318 14.9339 17.2281 14.9339 16.6994V3.60767C14.9339 2.26581 14.2857 1.59488 12.9893 1.59488H12.0256V2.96802ZM1.37314 16.9297V3.30064C1.37314 3.04477 1.4897 2.91684 1.72282 2.91684H2.1919C3.68159 2.91684 5.11443 2.78606 6.4904 2.52451C7.86638 2.26297 9.15138 1.94457 10.3454 1.5693C10.4875 1.52381 10.6012 1.52097 10.6865 1.56077C10.7718 1.60057 10.8145 1.68586 10.8145 1.81663V14.5586C10.8145 14.7917 10.7861 14.9694 10.7292 15.0917C10.6724 15.2139 10.5359 15.3461 10.3198 15.4883C9.87633 15.7839 9.36461 16.0483 8.78465 16.2815C8.20469 16.5146 7.55366 16.7093 6.83156 16.8656C6.10945 17.022 5.31912 17.1329 4.46055 17.1983C3.60199 17.2637 2.67235 17.2765 1.67164 17.2366C1.47264 17.2253 1.37314 17.123 1.37314 16.9297ZM3.113 5.16844V7.96588C3.113 8.09665 3.18123 8.16204 3.3177 8.16204C3.98294 8.16204 4.64535 8.12366 5.3049 8.04691C5.96446 7.97015 6.59843 7.85927 7.20682 7.71428C7.81521 7.56929 8.37527 7.39445 8.88701 7.18976C8.9666 7.14996 9.00639 7.08742 9.00639 7.00213V4.08528C9.00639 3.98863 8.97227 3.92608 8.90404 3.89765C8.8358 3.86922 8.77894 3.86638 8.73347 3.88912C7.85217 4.20753 6.96944 4.45487 6.08528 4.63112C5.20113 4.80739 4.27861 4.91258 3.3177 4.94669C3.18123 4.95806 3.113 5.03198 3.113 5.16844Z" fill="white"/>
</g>
<defs>
<clipPath id="clip0_1175_522">
<rect width="14.9339" height="20" fill="white"/>
</clipPath>
</defs>
</svg>
