<svg width="24" height="24" viewBox="0 0 24 24" fill="none" xmlns="http://www.w3.org/2000/svg">
<path d="M3.35354 20.6489C3.50688 20.8019 3.68728 20.9055 3.89474 20.9595C4.1022 21.0135 4.31192 21.0135 4.52389 20.9595C4.73586 20.9055 4.91851 20.8019 5.07184 20.6489L11.9992 13.7217L18.9401 20.6489C19.0934 20.8019 19.2738 20.9055 19.4812 20.9595C19.6887 21.0135 19.8962 21.0135 20.1036 20.9595C20.3111 20.9055 20.4914 20.8019 20.6448 20.6489C20.8071 20.4959 20.9131 20.3136 20.9627 20.102C21.0124 19.8905 21.0124 19.6812 20.9627 19.4741C20.9131 19.2671 20.8071 19.087 20.6448 18.9339L13.7175 12.0067L20.6448 5.09302C20.8071 4.93999 20.9131 4.75994 20.9627 4.55289C21.0124 4.34584 21.0124 4.13653 20.9627 3.92498C20.9131 3.71343 20.8071 3.53113 20.6448 3.3781C20.4914 3.22506 20.3111 3.12153 20.1036 3.06752C19.8962 3.0135 19.6887 3.0135 19.4812 3.06752C19.2738 3.12153 19.0934 3.22506 18.9401 3.3781L11.9992 10.3053L5.07184 3.3781C4.91851 3.22506 4.73586 3.12153 4.52389 3.06752C4.31192 3.0135 4.1022 3.0135 3.89474 3.06752C3.68728 3.12153 3.50688 3.22506 3.35354 3.3781C3.19118 3.53113 3.0852 3.71343 3.03559 3.92498C2.98598 4.13653 2.98823 4.34584 3.04235 4.55289C3.09647 4.75994 3.2002 4.93999 3.35354 5.09302L10.2944 12.0067L3.35354 18.9339C3.2002 19.087 3.09647 19.2671 3.04235 19.4741C2.98823 19.6812 2.98598 19.8905 3.03559 20.102C3.0852 20.3136 3.19118 20.4959 3.35354 20.6489Z" fill="black"/>
</svg>
