<svg width="16" height="16" viewBox="0 0 16 16" fill="none" xmlns="http://www.w3.org/2000/svg">
<g clip-path="url(#clip0_1077_321)">
<path d="M12.6667 0.666687H3.33333C2.4496 0.667746 1.60237 1.01928 0.97748 1.64417C0.352588 2.26906 0.00105857 3.11629 0 4.00002L0 9.33335C0.00105857 10.2171 0.352588 11.0643 0.97748 11.6892C1.60237 12.3141 2.4496 12.6656 3.33333 12.6667H7.33333V14H4.66667C4.48986 14 4.32029 14.0703 4.19526 14.1953C4.07024 14.3203 4 14.4899 4 14.6667C4 14.8435 4.07024 15.0131 4.19526 15.1381C4.32029 15.2631 4.48986 15.3334 4.66667 15.3334H11.3333C11.5101 15.3334 11.6797 15.2631 11.8047 15.1381C11.9298 15.0131 12 14.8435 12 14.6667C12 14.4899 11.9298 14.3203 11.8047 14.1953C11.6797 14.0703 11.5101 14 11.3333 14H8.66667V12.6667H12.6667C13.5504 12.6656 14.3976 12.3141 15.0225 11.6892C15.6474 11.0643 15.9989 10.2171 16 9.33335V4.00002C15.9989 3.11629 15.6474 2.26906 15.0225 1.64417C14.3976 1.01928 13.5504 0.667746 12.6667 0.666687ZM3.33333 2.00002H12.6667C13.1971 2.00002 13.7058 2.21073 14.0809 2.58581C14.456 2.96088 14.6667 3.46959 14.6667 4.00002V8.66669H1.33333V4.00002C1.33333 3.46959 1.54405 2.96088 1.91912 2.58581C2.29419 2.21073 2.8029 2.00002 3.33333 2.00002ZM12.6667 11.3334H3.33333C2.92116 11.3316 2.51958 11.2026 2.18353 10.964C1.84749 10.7253 1.59339 10.3886 1.456 10H14.544C14.4066 10.3886 14.1525 10.7253 13.8165 10.964C13.4804 11.2026 13.0788 11.3316 12.6667 11.3334Z" fill="black"/>
</g>
<defs>
<clipPath id="clip0_1077_321">
<rect width="16" height="16" fill="white"/>
</clipPath>
</defs>
</svg>
