<svg width="24" height="24" viewBox="0 0 24 24" fill="none" xmlns="http://www.w3.org/2000/svg">
<g clip-path="url(#clip0_1117_7)">
<path d="M0.893302 4.93881H23.0829C23.337 4.93881 23.5534 4.83702 23.732 4.63344C23.9107 4.42985 24 4.17999 24 3.88387C24 3.597 23.9107 3.35177 23.732 3.14818C23.5534 2.9446 23.337 2.8428 23.0829 2.8428H0.893302C0.647148 2.8428 0.436726 2.9446 0.262035 3.14818C0.0873452 3.35177 0 3.597 0 3.88387C0 4.17999 0.0873452 4.42985 0.262035 4.63344C0.436726 4.83702 0.647148 4.93881 0.893302 4.93881ZM0.893302 12.2124H23.0829C23.337 12.2124 23.5534 12.1106 23.732 11.907C23.9107 11.7034 24 11.4535 24 11.1574C24 10.8613 23.9107 10.6138 23.732 10.4148C23.5534 10.2158 23.337 10.1164 23.0829 10.1164H0.893302C0.647148 10.1164 0.436726 10.2158 0.262035 10.4148C0.0873452 10.6138 0 10.8613 0 11.1574C0 11.4535 0.0873452 11.7034 0.262035 11.907C0.436726 12.1106 0.647148 12.2124 0.893302 12.2124ZM0.893302 19.4859H23.0829C23.337 19.4859 23.5534 19.3841 23.732 19.1805C23.9107 18.9769 24 18.7271 24 18.431C24 18.1349 23.9107 17.8873 23.732 17.6883C23.5534 17.4894 23.337 17.3899 23.0829 17.3899H0.893302C0.647148 17.3899 0.436726 17.4894 0.262035 17.6883C0.0873452 17.8873 0 18.1349 0 18.431C0 18.7271 0.0873452 18.9769 0.262035 19.1805C0.436726 19.3841 0.647148 19.4859 0.893302 19.4859Z" fill="white"/>
</g>
<defs>
<clipPath id="clip0_1117_7">
<rect width="24" height="24" fill="white"/>
</clipPath>
</defs>
</svg>
